<svg width="171" height="48" viewBox="0 0 171 48" fill="none" xmlns="http://www.w3.org/2000/svg">
<path d="M4.57924e-07 12.0001L9.99998 6L20 12.0001L9.99998 18L4.57924e-07 12.0001Z" fill="#007800"/>
<path d="M20 12.0001L30 6L40 12.0001L30 18L20 12.0001Z" fill="#007800"/>
<path d="M10.0001 29.9998L20.0001 23.9998L30.0001 29.9998L20.0001 35.9998L10.0001 29.9998Z" fill="#007800"/>
<path d="M10 6.00008L20 -7.63195e-07L30 6.00008L20 12L10 6.00008Z" fill="#007800"/>
<path d="M0.000366211 11.9998L10.0004 17.9998L10.0004 29.9998L0.000367127 23.9998L0.000366211 11.9998Z" fill="#0A9A0A"/>
<path d="M20 12L30 18L30 30L20 24L20 12Z" fill="#0A9A0A"/>
<path d="M0.000366211 23.9998L10.0004 29.9998L10.0004 41.9998L0.000367127 35.9998L0.000366211 23.9998Z" fill="#0A9A0A"/>
<path d="M10.0002 29.9998L20.0002 35.9998L20.0002 47.9998L10.0002 41.9998L10.0002 29.9998Z" fill="#0A9A0A"/>
<path d="M20.0004 11.9998L10.0004 17.9998L10.0004 29.9998L20.0004 23.9998L20.0004 11.9998Z" fill="#004500"/>
<path d="M40 12L30 18L30 30L40 24L40 12Z" fill="#004500"/>
<path d="M40 24L30 30L30 42L40 36L40 24Z" fill="#004500"/>
<path d="M29.9999 30L19.9999 36L19.9999 48L29.9999 42L29.9999 30Z" fill="#004500"/>
<path d="M61.932 14.28H66.076V22.764H66.216C66.4213 21.9427 66.888 21.2707 67.616 20.748C68.3627 20.2253 69.212 19.964 70.164 19.964C72.0307 19.964 73.44 20.6173 74.392 21.924C75.344 23.2307 75.82 25.1347 75.82 27.636C75.82 30.1373 75.344 32.0507 74.392 33.376C73.44 34.6827 72.0307 35.336 70.164 35.336C69.6787 35.336 69.2213 35.2613 68.792 35.112C68.3627 34.9813 67.9707 34.7947 67.616 34.552C67.28 34.2907 66.9907 33.992 66.748 33.656C66.5053 33.3013 66.328 32.928 66.216 32.536H66.076V35H61.932V14.28ZM68.792 31.976C69.576 31.976 70.22 31.7053 70.724 31.164C71.2467 30.604 71.508 29.8573 71.508 28.924V26.376C71.508 25.4427 71.2467 24.7053 70.724 24.164C70.22 23.604 69.576 23.324 68.792 23.324C68.008 23.324 67.3547 23.52 66.832 23.912C66.328 24.2853 66.076 24.808 66.076 25.48V29.82C66.076 30.492 66.328 31.024 66.832 31.416C67.3547 31.7893 68.008 31.976 68.792 31.976ZM78.9672 14.28H83.1112V22.764H83.2512C83.4565 21.9427 83.9232 21.2707 84.6512 20.748C85.3978 20.2253 86.2472 19.964 87.1992 19.964C89.0658 19.964 90.4752 20.6173 91.4272 21.924C92.3792 23.2307 92.8552 25.1347 92.8552 27.636C92.8552 30.1373 92.3792 32.0507 91.4272 33.376C90.4752 34.6827 89.0658 35.336 87.1992 35.336C86.7138 35.336 86.2565 35.2613 85.8272 35.112C85.3978 34.9813 85.0058 34.7947 84.6512 34.552C84.3152 34.2907 84.0258 33.992 83.7832 33.656C83.5405 33.3013 83.3632 32.928 83.2512 32.536H83.1112V35H78.9672V14.28ZM85.8272 31.976C86.6112 31.976 87.2552 31.7053 87.7592 31.164C88.2818 30.604 88.5432 29.8573 88.5432 28.924V26.376C88.5432 25.4427 88.2818 24.7053 87.7592 24.164C87.2552 23.604 86.6112 23.324 85.8272 23.324C85.0432 23.324 84.3898 23.52 83.8672 23.912C83.3632 24.2853 83.1112 24.808 83.1112 25.48V29.82C83.1112 30.492 83.3632 31.024 83.8672 31.416C84.3898 31.7893 85.0432 31.976 85.8272 31.976ZM101.966 35.336C100.884 35.336 99.913 35.1587 99.0543 34.804C98.2143 34.4493 97.4956 33.936 96.8983 33.264C96.3196 32.592 95.8716 31.78 95.5543 30.828C95.237 29.876 95.0783 28.812 95.0783 27.636C95.0783 26.46 95.237 25.396 95.5543 24.444C95.8716 23.492 96.3196 22.6893 96.8983 22.036C97.4956 21.364 98.2143 20.8507 99.0543 20.496C99.913 20.1413 100.884 19.964 101.966 19.964C103.049 19.964 104.01 20.1413 104.85 20.496C105.709 20.8507 106.428 21.364 107.006 22.036C107.604 22.6893 108.061 23.492 108.378 24.444C108.696 25.396 108.854 26.46 108.854 27.636C108.854 28.812 108.696 29.876 108.378 30.828C108.061 31.78 107.604 32.592 107.006 33.264C106.428 33.936 105.709 34.4493 104.85 34.804C104.01 35.1587 103.049 35.336 101.966 35.336ZM101.966 32.06C102.788 32.06 103.422 31.808 103.87 31.304C104.318 30.8 104.542 30.0813 104.542 29.148V26.152C104.542 25.2187 104.318 24.5 103.87 23.996C103.422 23.492 102.788 23.24 101.966 23.24C101.145 23.24 100.51 23.492 100.062 23.996C99.6143 24.5 99.3903 25.2187 99.3903 26.152V29.148C99.3903 30.0813 99.6143 30.8 100.062 31.304C100.51 31.808 101.145 32.06 101.966 32.06ZM116.791 35.336C115.372 35.336 114.178 35.112 113.207 34.664C112.236 34.1973 111.368 33.544 110.603 32.704L113.039 30.24C113.562 30.8187 114.14 31.276 114.775 31.612C115.41 31.948 116.128 32.116 116.931 32.116C117.752 32.116 118.322 31.9947 118.639 31.752C118.956 31.4907 119.115 31.1453 119.115 30.716C119.115 30.0253 118.62 29.6147 117.631 29.484L116.035 29.288C112.731 28.8773 111.079 27.3653 111.079 24.752C111.079 24.0427 111.21 23.3987 111.471 22.82C111.751 22.2227 112.134 21.7187 112.619 21.308C113.123 20.8787 113.72 20.552 114.411 20.328C115.12 20.0853 115.914 19.964 116.791 19.964C117.556 19.964 118.228 20.02 118.807 20.132C119.404 20.2253 119.927 20.3747 120.375 20.58C120.842 20.7667 121.262 21.0093 121.635 21.308C122.027 21.588 122.41 21.9053 122.783 22.26L120.403 24.696C119.936 24.2293 119.404 23.8653 118.807 23.604C118.228 23.324 117.631 23.184 117.015 23.184C116.306 23.184 115.802 23.296 115.503 23.52C115.204 23.744 115.055 24.0427 115.055 24.416C115.055 24.808 115.158 25.116 115.363 25.34C115.587 25.5453 115.998 25.6947 116.595 25.788L118.247 26.012C121.476 26.4413 123.091 27.916 123.091 30.436C123.091 31.1453 122.942 31.7987 122.643 32.396C122.344 32.9933 121.915 33.516 121.355 33.964C120.814 34.3933 120.151 34.7293 119.367 34.972C118.602 35.2147 117.743 35.336 116.791 35.336ZM130.709 35.336C129.29 35.336 128.096 35.112 127.125 34.664C126.154 34.1973 125.286 33.544 124.521 32.704L126.957 30.24C127.48 30.8187 128.058 31.276 128.693 31.612C129.328 31.948 130.046 32.116 130.849 32.116C131.67 32.116 132.24 31.9947 132.557 31.752C132.874 31.4907 133.033 31.1453 133.033 30.716C133.033 30.0253 132.538 29.6147 131.549 29.484L129.953 29.288C126.649 28.8773 124.997 27.3653 124.997 24.752C124.997 24.0427 125.128 23.3987 125.389 22.82C125.669 22.2227 126.052 21.7187 126.537 21.308C127.041 20.8787 127.638 20.552 128.329 20.328C129.038 20.0853 129.832 19.964 130.709 19.964C131.474 19.964 132.146 20.02 132.725 20.132C133.322 20.2253 133.845 20.3747 134.293 20.58C134.76 20.7667 135.18 21.0093 135.553 21.308C135.945 21.588 136.328 21.9053 136.701 22.26L134.321 24.696C133.854 24.2293 133.322 23.8653 132.725 23.604C132.146 23.324 131.549 23.184 130.933 23.184C130.224 23.184 129.72 23.296 129.421 23.52C129.122 23.744 128.973 24.0427 128.973 24.416C128.973 24.808 129.076 25.116 129.281 25.34C129.505 25.5453 129.916 25.6947 130.513 25.788L132.165 26.012C135.394 26.4413 137.009 27.916 137.009 30.436C137.009 31.1453 136.86 31.7987 136.561 32.396C136.262 32.9933 135.833 33.516 135.273 33.964C134.732 34.3933 134.069 34.7293 133.285 34.972C132.52 35.2147 131.661 35.336 130.709 35.336ZM142.024 35.308C141.184 35.308 140.558 35.1027 140.148 34.692C139.756 34.2627 139.56 33.7213 139.56 33.068V32.508C139.56 31.8547 139.756 31.3227 140.148 30.912C140.558 30.4827 141.184 30.268 142.024 30.268C142.864 30.268 143.48 30.4827 143.872 30.912C144.282 31.3227 144.488 31.8547 144.488 32.508V33.068C144.488 33.7213 144.282 34.2627 143.872 34.692C143.48 35.1027 142.864 35.308 142.024 35.308ZM150.356 18.732C149.516 18.732 148.9 18.5453 148.508 18.172C148.134 17.78 147.948 17.2853 147.948 16.688V16.072C147.948 15.4747 148.134 14.9893 148.508 14.616C148.9 14.224 149.516 14.028 150.356 14.028C151.196 14.028 151.802 14.224 152.176 14.616C152.568 14.9893 152.764 15.4747 152.764 16.072V16.688C152.764 17.2853 152.568 17.78 152.176 18.172C151.802 18.5453 151.196 18.732 150.356 18.732ZM148.284 20.3H152.428V35H148.284V20.3ZM162.259 35.336C161.177 35.336 160.206 35.1587 159.347 34.804C158.507 34.4493 157.789 33.936 157.191 33.264C156.613 32.592 156.165 31.78 155.847 30.828C155.53 29.876 155.371 28.812 155.371 27.636C155.371 26.46 155.53 25.396 155.847 24.444C156.165 23.492 156.613 22.6893 157.191 22.036C157.789 21.364 158.507 20.8507 159.347 20.496C160.206 20.1413 161.177 19.964 162.259 19.964C163.342 19.964 164.303 20.1413 165.143 20.496C166.002 20.8507 166.721 21.364 167.299 22.036C167.897 22.6893 168.354 23.492 168.671 24.444C168.989 25.396 169.147 26.46 169.147 27.636C169.147 28.812 168.989 29.876 168.671 30.828C168.354 31.78 167.897 32.592 167.299 33.264C166.721 33.936 166.002 34.4493 165.143 34.804C164.303 35.1587 163.342 35.336 162.259 35.336ZM162.259 32.06C163.081 32.06 163.715 31.808 164.163 31.304C164.611 30.8 164.835 30.0813 164.835 29.148V26.152C164.835 25.2187 164.611 24.5 164.163 23.996C163.715 23.492 163.081 23.24 162.259 23.24C161.438 23.24 160.803 23.492 160.355 23.996C159.907 24.5 159.683 25.2187 159.683 26.152V29.148C159.683 30.0813 159.907 30.8 160.355 31.304C160.803 31.808 161.438 32.06 162.259 32.06Z" fill="white"/>
</svg>
